<?xml version="1.0" standalone="no"?>
<!DOCTYPE svg PUBLIC "-//W3C//DTD SVG 20010904//EN"
 "http://www.w3.org/TR/2001/REC-SVG-20010904/DTD/svg10.dtd">
<svg version="1.0" xmlns="http://www.w3.org/2000/svg"
 width="930.000000pt" height="616.000000pt" viewBox="0 0 930.000000 616.000000"
 preserveAspectRatio="xMidYMid meet">

<g transform="translate(0.000000,616.000000) scale(0.100000,-0.100000)"
fill="#000000" stroke="none">
<path d="M2181 3348 c-5 -13 -17 -68 -26 -123 -15 -92 -31 -177 -95 -533 -18
-95 -20 -126 -11 -135 17 -17 685 -21 699 -4 12 14 32 117 32 164 l0 34 -97
-3 -97 -3 -8 -39 c-14 -66 -15 -67 -172 -64 l-141 3 1 30 c0 17 13 98 27 180
61 343 87 491 87 503 0 9 -26 12 -95 12 -90 0 -96 -1 -104 -22z"/>
<path d="M7522 3353 c-6 -10 -17 -65 -26 -123 -10 -58 -33 -195 -53 -306 -20
-111 -33 -212 -29 -225 3 -13 33 -53 65 -89 l59 -65 116 1 c64 0 120 4 125 10
5 5 11 25 13 44 l3 35 -73 5 c-62 4 -77 9 -93 29 -10 13 -19 30 -19 38 0 13
44 276 56 331 4 21 9 22 98 22 108 0 126 10 126 66 l0 34 -94 0 c-52 0 -97 4
-100 9 -3 5 1 46 10 91 8 45 13 89 10 96 -4 11 -28 14 -95 14 -76 0 -92 -3
-99 -17z"/>
<path d="M1416 3089 c-68 -57 -88 -79 -95 -108 -24 -97 -72 -381 -69 -407 3
-29 4 -29 74 -32 39 -2 82 2 96 7 30 11 30 10 77 290 39 226 32 219 196 221
66 2 126 2 133 1 22 -2 13 -49 -15 -76 -24 -22 -37 -25 -98 -25 -38 0 -76 -4
-84 -9 -7 -5 -14 -26 -15 -47 l-1 -39 73 -5 c62 -4 77 -9 93 -29 22 -27 23
-37 8 -97 -7 -28 -23 -54 -41 -69 -26 -22 -39 -25 -103 -25 -79 0 -85 -4 -85
-60 0 -33 23 -40 134 -40 107 0 131 11 224 98 81 76 82 78 82 126 0 41 -5 54
-35 87 -19 22 -35 45 -35 52 0 6 25 35 55 62 50 45 58 57 71 113 8 35 12 68 8
73 -3 5 -126 9 -283 9 l-279 0 -86 -71z"/>
<path d="M2930 3134 c-24 -61 -7 -74 97 -74 91 0 103 8 103 69 l0 31 -95 0
c-93 0 -96 -1 -105 -26z"/>
<path d="M3211 3137 c-5 -13 -31 -148 -57 -301 -41 -237 -46 -279 -33 -287 15
-11 173 -8 184 3 7 7 27 114 68 368 l23 135 131 3 c187 4 182 16 132 -278 -40
-237 -40 -223 -4 -231 52 -11 140 -10 158 4 11 8 21 43 31 107 8 52 24 147 35
210 12 63 21 122 21 132 0 15 -89 132 -115 150 -5 4 -135 8 -288 8 l-277 0 -9
-23z"/>
<path d="M4097 3112 c-29 -26 -62 -54 -73 -62 -37 -27 -53 -64 -69 -165 -8
-55 -25 -151 -37 -213 -18 -97 -19 -115 -7 -123 16 -10 296 -11 354 -1 36 7
41 11 49 45 5 20 6 40 3 44 -4 4 -47 6 -96 4 -55 -1 -92 2 -96 8 -3 6 5 75 20
153 14 79 28 157 30 174 3 17 16 43 30 58 24 25 27 26 155 26 l130 0 0 -26 c0
-22 -35 -238 -91 -553 -11 -63 -18 -120 -15 -128 7 -18 165 -18 189 0 13 9 23
54 42 177 13 91 43 261 65 378 22 117 40 222 40 233 0 18 -10 19 -285 19
l-285 0 -53 -48z"/>
<path d="M4796 3148 c-7 -22 -76 -419 -88 -506 -11 -71 -10 -85 2 -93 19 -12
166 -7 179 6 5 6 28 120 51 254 22 135 42 246 44 249 3 3 133 5 184 3 18 -1
15 -32 -23 -258 -40 -234 -41 -249 -19 -257 29 -11 150 -6 167 7 10 6 21 35
26 62 5 28 20 115 34 195 14 80 28 167 32 193 8 58 18 63 110 59 57 -3 68 -7
82 -28 15 -23 13 -40 -22 -250 -32 -190 -36 -227 -24 -235 18 -11 160 -11 178
0 8 5 22 64 36 147 13 77 28 163 34 193 21 106 17 127 -44 202 l-56 69 -440 0
c-343 0 -440 -3 -443 -12z"/>
<path d="M5959 3085 l-86 -74 -16 -83 c-33 -171 -60 -357 -54 -372 5 -13 32
-15 197 -12 105 2 195 7 200 12 11 12 16 66 7 80 -4 8 -36 10 -97 6 l-90 -5 0
34 c0 19 9 81 20 139 47 258 38 248 205 250 66 1 126 1 133 1 16 -1 15 -33 -3
-117 -31 -150 -67 -374 -62 -389 8 -19 165 -22 189 -2 10 8 22 61 37 157 13
80 34 200 47 268 13 68 24 137 24 153 l0 29 -282 0 -283 -1 -86 -74z"/>
<path d="M6763 3094 c-43 -37 -83 -76 -90 -88 -15 -26 -85 -408 -81 -439 3
-21 7 -22 92 -20 48 0 92 5 98 11 5 5 27 110 48 233 48 283 37 269 221 269
l129 0 0 -30 c0 -58 -21 -128 -46 -151 -21 -20 -39 -25 -107 -29 l-81 -5 -9
-34 c-10 -42 -1 -53 55 -60 l42 -6 29 -93 c35 -111 44 -117 156 -109 80 6 86
9 96 48 5 22 0 33 -29 63 -20 19 -36 42 -36 49 0 8 -9 22 -20 32 -11 10 -20
24 -20 31 0 7 34 40 75 74 41 34 77 70 79 79 12 36 36 178 36 209 l0 32 -279
0 -279 0 -79 -66z"/>
<path d="M2908 2948 c-16 -14 -81 -368 -71 -394 7 -19 162 -20 185 -1 11 8 25
69 47 202 17 105 31 193 31 198 0 13 -175 8 -192 -5z"/>
</g>
</svg>
